<svg width="25" height="18" viewBox="0 0 25 18" fill="none" xmlns="http://www.w3.org/2000/svg">
<path d="M20.2257 9.87802C20.4289 9.61626 20.3814 9.23934 20.1196 9.03614C19.8579 8.83295 19.4809 8.88042 19.2778 9.14218L19.7517 9.5101L20.2257 9.87802ZM15.1504 15.4375V16.0375C15.3357 16.0375 15.5107 15.9519 15.6244 15.8054L15.1504 15.4375ZM10.3006 15.4375L9.95067 15.9249C10.0527 15.9981 10.1751 16.0375 10.3006 16.0375V15.4375ZM8.00919 13.0535C7.74002 12.8602 7.36514 12.9217 7.17186 13.1909C6.97858 13.46 7.0401 13.8349 7.30927 14.0282L7.65923 13.5408L8.00919 13.0535ZM12.2611 9.74929L12.4148 10.3293C12.6487 10.2673 12.8224 10.0709 12.8555 9.83122L12.2611 9.74929ZM6.97821 11.1495L6.58404 11.6019C6.73418 11.7327 6.93944 11.7805 7.13194 11.7295L6.97821 11.1495ZM1.47345 6.35273L0.942867 6.07259C0.812852 6.31882 0.869338 6.62216 1.07927 6.80509L1.47345 6.35273ZM2.21034 4.95712L2.39391 4.3859C2.11677 4.29683 1.81568 4.41955 1.67976 4.67698L2.21034 4.95712ZM8.32786 6.92307L8.64651 6.41467C8.60427 6.3882 8.55889 6.36709 8.51143 6.35184L8.32786 6.92307ZM12.3069 9.41702L12.9013 9.49895C12.9335 9.26506 12.8256 9.03401 12.6255 8.90862L12.3069 9.41702ZM14.4778 4.62901C14.1483 4.66448 13.91 4.96031 13.9454 5.28978C13.9809 5.61925 14.2767 5.85758 14.6062 5.82212L14.542 5.22556L14.4778 4.62901ZM17.0452 4.95609L17.4642 4.52666C17.3362 4.40166 17.1589 4.34038 16.981 4.35953L17.0452 4.95609ZM19.2385 7.09632L19.8208 6.95198C19.794 6.8436 19.7374 6.74487 19.6575 6.6669L19.2385 7.09632ZM19.2284 9.54966C19.3081 9.8713 19.6334 10.0674 19.9551 9.9877C20.2767 9.90799 20.4728 9.58262 20.3931 9.26098L19.8107 9.40532L19.2284 9.54966ZM15.4602 5.52155C15.3691 5.20295 15.0369 5.01856 14.7183 5.10969C14.3997 5.20082 14.2154 5.53297 14.3065 5.85156L14.8833 5.68655L15.4602 5.52155ZM15.7506 8.71854L16.2799 9.00104C16.3532 8.86369 16.3703 8.70322 16.3275 8.55353L15.7506 8.71854ZM13.5916 11.4896C13.4355 11.7819 13.546 12.1454 13.8384 12.3014C14.1307 12.4574 14.4942 12.3469 14.6502 12.0546L14.1209 11.7721L13.5916 11.4896ZM16.8717 5.26106C16.8717 5.59243 17.1404 5.86106 17.4717 5.86106C17.8031 5.86106 18.0717 5.59243 18.0717 5.26106H17.4717H16.8717ZM17.4717 3.95886H18.0717C18.0717 3.80421 18.012 3.65554 17.9051 3.54386L17.4717 3.95886ZM15.9846 2.40603L16.418 1.99104C16.2712 1.83783 16.0545 1.77349 15.848 1.8218L15.9846 2.40603ZM13.8749 2.28335C13.5522 2.35883 13.3519 2.68158 13.4273 3.00424C13.5028 3.3269 13.8256 3.52728 14.1482 3.45181L14.0116 2.86758L13.8749 2.28335ZM0.272492 10.6461C-0.00513462 10.827 -0.0835349 11.1987 0.0973799 11.4763C0.278295 11.754 0.650016 11.8324 0.927642 11.6514L0.600067 11.1488L0.272492 10.6461ZM4.43108 9.36844C4.70871 9.18752 4.78711 8.8158 4.60619 8.53818C4.42528 8.26055 4.05356 8.18215 3.77593 8.36306L4.10351 8.86575L4.43108 9.36844ZM15.1342 0.937507L14.624 0.621777L14.4583 0.889498L14.5845 1.17795L15.1342 0.937507ZM19.7517 9.5101L19.2778 9.14218L14.6764 15.0696L15.1504 15.4375L15.6244 15.8054L20.2257 9.87802L19.7517 9.5101ZM15.1504 15.4375V14.8375H10.3006V15.4375V16.0375H15.1504V15.4375ZM10.3006 15.4375L10.6506 14.9502L8.00919 13.0535L7.65923 13.5408L7.30927 14.0282L9.95067 15.9249L10.3006 15.4375ZM12.2611 9.74929L12.1074 9.16932L6.82449 10.5695L6.97821 11.1495L7.13194 11.7295L12.4148 10.3293L12.2611 9.74929ZM6.97821 11.1495L7.37239 10.6972L1.86762 5.90038L1.47345 6.35273L1.07927 6.80509L6.58404 11.6019L6.97821 11.1495ZM1.47345 6.35273L2.00403 6.63288L2.74092 5.23727L2.21034 4.95712L1.67976 4.67698L0.942867 6.07259L1.47345 6.35273ZM2.21034 4.95712L2.02677 5.52835L8.14429 7.49429L8.32786 6.92307L8.51143 6.35184L2.39391 4.3859L2.21034 4.95712ZM8.32786 6.92307L8.00921 7.43146L11.9882 9.92541L12.3069 9.41702L12.6255 8.90862L8.64651 6.41467L8.32786 6.92307ZM12.3069 9.41702L11.7125 9.33508L11.6667 9.66736L12.2611 9.74929L12.8555 9.83122L12.9013 9.49895L12.3069 9.41702ZM14.542 5.22556L14.6062 5.82212L17.1094 5.55264L17.0452 4.95609L16.981 4.35953L14.4778 4.62901L14.542 5.22556ZM17.0452 4.95609L16.6262 5.38551L18.8194 7.52574L19.2385 7.09632L19.6575 6.6669L17.4642 4.52666L17.0452 4.95609ZM19.2385 7.09632L18.6561 7.24066L19.2284 9.54966L19.8107 9.40532L20.3931 9.26098L19.8208 6.95198L19.2385 7.09632ZM14.8833 5.68655L14.3065 5.85156L15.1737 8.88354L15.7506 8.71854L16.3275 8.55353L15.4602 5.52155L14.8833 5.68655ZM15.7506 8.71854L15.2213 8.43603L13.5916 11.4896L14.1209 11.7721L14.6502 12.0546L16.2799 9.00104L15.7506 8.71854ZM17.4717 5.26106H18.0717V3.95886H17.4717H16.8717V5.26106H17.4717ZM17.4717 3.95886L17.9051 3.54386L16.418 1.99104L15.9846 2.40603L15.5513 2.82103L17.0384 4.37385L17.4717 3.95886ZM15.9846 2.40603L15.848 1.8218L13.8749 2.28335L14.0116 2.86758L14.1482 3.45181L16.1213 2.99026L15.9846 2.40603ZM0.600067 11.1488L0.927642 11.6514L4.43108 9.36844L4.10351 8.86575L3.77593 8.36306L0.272492 10.6461L0.600067 11.1488ZM21.3038 17.3157V17.9157C22.9145 17.9157 24.2001 16.5871 24.2001 14.9734H23.6001H23.0001C23.0001 15.9469 22.2295 16.7157 21.3038 16.7157V17.3157ZM23.6001 14.9734H24.2001C24.2001 13.3597 22.9146 12.0311 21.3038 12.0311V12.6311V13.2311C22.2295 13.2311 23.0001 13.9999 23.0001 14.9734H23.6001ZM21.3038 12.6311V12.0311C19.6931 12.0311 18.4075 13.3597 18.4075 14.9734H19.0075H19.6075C19.6075 13.9999 20.3781 13.2311 21.3038 13.2311V12.6311ZM19.0075 14.9734H18.4075C18.4075 16.5871 19.6931 17.9157 21.3038 17.9157V17.3157V16.7157C20.3781 16.7157 19.6075 15.9469 19.6075 14.9734H19.0075ZM3.70175 17.3157V17.9157C5.31249 17.9157 6.59805 16.5871 6.59805 14.9734H5.99805H5.39805C5.39805 15.9469 4.62744 16.7157 3.70175 16.7157V17.3157ZM5.99805 14.9734H6.59805C6.59805 13.3597 5.3125 12.0311 3.70175 12.0311V12.6311V13.2311C4.62743 13.2311 5.39805 13.9999 5.39805 14.9734H5.99805ZM3.70175 12.6311V12.0311C2.09101 12.0311 0.805462 13.3597 0.805462 14.9734H1.40546H2.00546C2.00546 13.9999 2.77608 13.2311 3.70175 13.2311V12.6311ZM1.40546 14.9734H0.805462C0.805462 16.5871 2.09102 17.9157 3.70175 17.9157V17.3157V16.7157C2.77607 16.7157 2.00546 15.9469 2.00546 14.9734H1.40546ZM15.9839 2.88018L16.5336 2.63974L15.6839 0.697065L15.1342 0.937507L14.5845 1.17795L15.4342 3.12062L15.9839 2.88018ZM15.1342 0.937507L15.6444 1.25324L16.0292 0.631404L15.519 0.315674L15.0088 -5.67877e-05L14.624 0.621777L15.1342 0.937507Z" fill="#18191A"/>
</svg>
