<svg width="14" height="18" viewBox="0 0 14 18" fill="none" xmlns="http://www.w3.org/2000/svg">
<path d="M9.65625 6.5C9.65625 7.99414 8.46094 9.15625 7 9.15625C5.50586 9.15625 4.34375 7.99414 4.34375 6.5C4.34375 5.03906 5.50586 3.84375 7 3.84375C8.46094 3.84375 9.65625 5.03906 9.65625 6.5ZM7 8.09375C7.86328 8.09375 8.59375 7.39648 8.59375 6.5C8.59375 5.63672 7.86328 4.90625 7 4.90625C6.10352 4.90625 5.40625 5.63672 5.40625 6.5C5.40625 7.39648 6.10352 8.09375 7 8.09375ZM13.375 6.5C13.375 9.42188 9.49023 14.5684 7.76367 16.7266C7.36523 17.2246 6.60156 17.2246 6.20312 16.7266C4.47656 14.5684 0.625 9.42188 0.625 6.5C0.625 2.98047 3.44727 0.125 7 0.125C10.5195 0.125 13.375 2.98047 13.375 6.5ZM7 1.1875C4.04492 1.1875 1.6875 3.57812 1.6875 6.5C1.6875 7.03125 1.85352 7.72852 2.21875 8.625C2.58398 9.48828 3.08203 10.418 3.67969 11.3477C4.80859 13.1738 6.13672 14.9336 7 15.9961C7.83008 14.9336 9.1582 13.1738 10.2871 11.3477C10.8848 10.418 11.3828 9.48828 11.748 8.625C12.1133 7.72852 12.3125 7.03125 12.3125 6.5C12.3125 3.57812 9.92188 1.1875 7 1.1875Z" fill="#191919"/>
</svg>
